# xmcd
#
# Track frame offsets: 
#        150
#        14542
#        30251
#        46811
#        61206
#        76860
#        94429
#        113377
#        127945
#        145121
#        155968
#        169687
#        181976
#        197306
#
# Disc length: 2813 seconds
#
# Revision: 0
# Processed by: cddbd v1.5.2PL0 Copyright (c) Steve Scherf et al.
# Submitted via: ExactAudioCopy v0.95a5
#
DISCID=a60afb0e
DTITLE=The BossHoss - Stallion Batallion
DYEAR=2007
DGENRE=Country
TTITLE0=Stallion Battalion [Single Version]
TTITLE1=Monkey Business [Single Version]
TTITLE2=Shake  Shout
TTITLE3=José And Myling
TTITLE4=Free Love On A Free Love Free Way
TTITLE5=Polk Salad Annie
TTITLE6=Omniscient Lover
TTITLE7=Everything Counts [King Calavera Version]
TTITLE8=Goodbye Mary
TTITLE9=Gay Bar
TTITLE10=TrucknRoll Rules [Single Version]
TTITLE11=High
TTITLE12=Drop It Like Its Hot
TTITLE13=Jumpin´Around
EXTD=
EXTT0=
EXTT1=
EXTT2=
EXTT3=
EXTT4=
EXTT5=
EXTT6=
EXTT7=
EXTT8=
EXTT9=
EXTT10=
EXTT11=
EXTT12=
EXTT13=
PLAYORDER=
